<svg xmlns="http://www.w3.org/2000/svg" viewBox="0 0 512 512"><defs><style>.cls-1{fill:#27273d;}.cls-2{fill:#295c99;}.cls-3{fill:#366fca;}.cls-4{fill:#3467b2;}.cls-5{fill:#fff;}.cls-6{fill:#e0e0e0;}.cls-7{fill:#578ddd;}.cls-8{fill:#2f62ad;}.cls-9{fill:#32314b;}.cls-10{fill:#a99bd4;}</style></defs><title>Public Transport</title><g id="BULINE"><circle class="cls-1" cx="256" cy="256" r="256"/></g><g id="Icons"><path class="cls-2" d="M403.36,83.59,301.25,117.07a16.72,16.72,0,0,0-10.67,21.08l.27.82a17.57,17.57,0,0,0-22.16-11.22L34.34,204.59a17.56,17.56,0,0,0-11.21,22.16L85.66,417.46a17.55,17.55,0,0,0,22.16,11.22l234.34-76.83a17.57,17.57,0,0,0,11.22-22.17l.27.82a16.72,16.72,0,0,0,21.08,10.67l102.11-33.48a16.71,16.71,0,0,0,10.67-21.09L424.45,94.26A16.72,16.72,0,0,0,403.36,83.59Z"/><path class="cls-3" d="M444.71,145.82H337.26a16.71,16.71,0,0,0-16.71,16.71v.85A17.57,17.57,0,0,0,303,145.82H56.36A17.56,17.56,0,0,0,38.8,163.38v200.7a17.56,17.56,0,0,0,17.56,17.57H303a17.57,17.57,0,0,0,17.57-17.57v.86a16.71,16.71,0,0,0,16.71,16.71H444.71a16.71,16.71,0,0,0,16.71-16.71V162.53A16.71,16.71,0,0,0,444.71,145.82Z"/><path class="cls-4" d="M104.37,381.74h-48A17.56,17.56,0,0,1,38.8,364.17V163.47a17.56,17.56,0,0,1,17.57-17.56h48A17.56,17.56,0,0,0,86.8,163.47v200.7A17.56,17.56,0,0,0,104.37,381.74Z"/><rect class="cls-5" x="38.8" y="194.85" width="422.63" height="137.77"/><rect class="cls-6" x="38.8" y="194.94" width="48" height="137.77"/><circle class="cls-7" cx="439.88" cy="179.1" r="9.07"/><circle class="cls-7" cx="439.88" cy="160.2" r="6.43"/><rect class="cls-8" x="315.88" y="160.4" width="10.67" height="23.17" rx="5.33"/><rect class="cls-8" x="315.88" y="190.65" width="10.67" height="23.17" rx="5.33"/><rect class="cls-8" x="315.88" y="220.9" width="10.67" height="23.17" rx="5.33"/><rect class="cls-8" x="315.88" y="251.15" width="10.67" height="23.17" rx="5.33"/><rect class="cls-8" x="315.88" y="281.4" width="10.67" height="23.17" rx="5.33"/><rect class="cls-8" x="315.88" y="311.65" width="10.67" height="23.17" rx="5.33"/><rect class="cls-8" x="315.88" y="341.9" width="10.67" height="23.17" rx="5.33"/><path class="cls-5" d="M71.78,164.4v19.18H64.44V164.4H59.21v-6H77v6Z"/><path class="cls-5" d="M101.67,183.58H93.08l-3.68-9.64H87v9.64H79.21V158.36H92.39a10.16,10.16,0,0,1,6.77,2,6.72,6.72,0,0,1,2.42,5.39,8.13,8.13,0,0,1-.89,3.85,7.5,7.5,0,0,1-3.59,3ZM87,168.54h3.31a4,4,0,0,0,2.34-.61,2,2,0,0,0,.89-1.79c0-1.62-1-2.42-3-2.42H87Z"/><path class="cls-5" d="M119.24,183.58l-1.43-5h-6.75l-1.52,5h-6.29L111,158.36h8.19l7.91,25.22Zm-6.87-10.48h4.08l-2-7.31Z"/><path class="cls-5" d="M137.21,158.36v25.22h-7.74V158.36Z"/><path class="cls-5" d="M163.18,183.58h-6.3L150,172.44a42.2,42.2,0,0,1-2.68-5.21,17.82,17.82,0,0,1,.61,4.14v12.21h-6.29V158.36h7.32l5.88,9.24a35.12,35.12,0,0,1,2.66,4.84,37.13,37.13,0,0,1-.59-6.62v-7.46h6.3Z"/><path class="cls-5" d="M187.41,164.4v19.18h-7.34V164.4h-5.23v-6h17.8v6Z"/><path class="cls-5" d="M202.59,158.36v25.22h-7.75V158.36Z"/><path class="cls-5" d="M220.87,174l7.08.43a10.41,10.41,0,0,1-3.43,7.12,11.78,11.78,0,0,1-15.5-.93c-2.11-2.27-3.16-5.39-3.16-9.39a14.63,14.63,0,0,1,3-9.57,10.22,10.22,0,0,1,8.36-3.64q5,0,7.69,2.77a11.44,11.44,0,0,1,3,7.36l-7.23.38a5.64,5.64,0,0,0-1-3.66,2.93,2.93,0,0,0-2.28-1.12q-3.66,0-3.66,7.35c0,2.75.31,4.62.95,5.6a3,3,0,0,0,2.67,1.48Q220.49,178.13,220.87,174Z"/><path class="cls-5" d="M253.53,183.58h-8.48l-4.36-9.53-2.62,3.71v5.82h-7.3V158.36h7.3v10.43l7-10.43h7l-6.37,9.23Z"/><path class="cls-5" d="M274.58,177.56v6h-19V158.36h19v5.82H263.19v3.66h9.21v5.6h-9.21v4.12Z"/><path class="cls-5" d="M288,164.4v19.18h-7.33V164.4h-5.23v-6h17.79v6Z"/><path class="cls-3" d="M441.94,322.42a4.12,4.12,0,1,0,0-8.23H427.22l-7.18-11a4.11,4.11,0,1,0-6.89,4.49l4.25,6.53H366.27l4.25-6.53a4.11,4.11,0,0,0-6.89-4.49l-7.18,11H342.59a4.12,4.12,0,0,0,0,8.23Zm-81,0h61.85"/><path class="cls-9" d="M422.74,302.92q-30.14,17.88-60.29,0c-9.9,0-17.74-9.56-17.1-20.86l3.08-54.44c.84-14.94,11.69-26.57,24.79-26.57H412c13.1,0,23.95,11.63,24.8,26.57l3.08,54.44C440.49,293.36,432.64,302.92,422.74,302.92Z"/><path class="cls-5" d="M429.54,264.59l-2.41-37.23a19.42,19.42,0,0,0-19.38-18.17h-30.3a19.42,19.42,0,0,0-19.38,18.17l-2.41,37.23A13.4,13.4,0,0,0,369,278.85h47.13A13.4,13.4,0,0,0,429.54,264.59Z"/><circle class="cls-5" cx="362.56" cy="288.72" r="6.58"/><circle class="cls-5" cx="421.12" cy="288.72" r="6.58"/><rect class="cls-10" x="59.06" y="206.26" width="121.02" height="29.63" rx="2.84"/><rect class="cls-10" x="59.06" y="291.58" width="121.02" height="29.63" rx="2.84"/><rect class="cls-10" x="59.06" y="248.03" width="234.18" height="29.63" rx="2.84"/></g></svg>